<svg width="104" height="157" viewBox="0 0 104 157" fill="none" xmlns="http://www.w3.org/2000/svg">
<path d="M52 78.6057C52 64.2465 63.6406 52.6057 77.9999 52.6057C92.3593 52.6057 104 64.2463 104 78.6057C104 92.9651 92.3593 104.606 77.9999 104.606C63.6406 104.606 52 92.965 52 78.6057Z" fill="#1ABCFE"/>
<path d="M0 130.606C0 116.246 11.6406 104.606 26 104.606H52V130.606C52 144.965 40.3594 156.606 26 156.606C11.6406 156.606 0 144.965 0 130.606Z" fill="#0ACF83"/>
<path d="M52 0.605713V52.6057H78C92.3594 52.6057 104 40.9651 104 26.6057C104 12.2463 92.3594 0.605713 78 0.605713L52 0.605713Z" fill="#FF7262"/>
<path d="M0 26.6057C0 40.9651 11.6406 52.6057 26 52.6057L52 52.6057L52 0.605713L26 0.605713C11.6406 0.605713 0 12.2463 0 26.6057Z" fill="#F24E1E"/>
<path d="M0 78.6057C0 92.9651 11.6406 104.606 26 104.606H52L52 52.6057L26 52.6057C11.6406 52.6057 0 64.2463 0 78.6057Z" fill="#A259FF"/>
</svg>
